<?xml version="1.0" standalone="no"?>
<!DOCTYPE svg PUBLIC "-//W3C//DTD SVG 1.1//EN" "http://www.w3.org/Graphics/SVG/1.1/DTD/svg11.dtd" >
<svg xmlns="http://www.w3.org/2000/svg">
<metadata>
Created by FontForge 20120731 at Sat May 13 15:03:36 2017
 By admin
</metadata>
<defs>
<font id="iconfont" horiz-adv-x="1024" >
  <font-face 
    font-family="iconfont"
    font-weight="500"
    font-stretch="normal"
    units-per-em="1024"
    panose-1="2 0 6 3 0 0 0 0 0 0"
    ascent="896"
    descent="-128"
    x-height="792"
    bbox="0.368421 -175 1115.2 896"
    underline-thickness="0"
    underline-position="0"
    unicode-range="U+0078-E78E"
  />
<missing-glyph 
 />
    <glyph glyph-name=".notdef" 
 />
    <glyph glyph-name=".notdef" 
 />
    <glyph glyph-name=".null" horiz-adv-x="0" 
 />
    <glyph glyph-name="nonmarkingreturn" horiz-adv-x="341" 
 />
    <glyph glyph-name="x" unicode="x" horiz-adv-x="1001" 
d="M281 543q-27 -1 -53 -1h-83q-18 0 -36.5 -6t-32.5 -18.5t-23 -32t-9 -45.5v-76h912v41q0 16 -0.5 30t-0.5 18q0 13 -5 29t-17 29.5t-31.5 22.5t-49.5 9h-133v-97h-438v97zM955 310v-52q0 -23 0.5 -52t0.5 -58t-10.5 -47.5t-26 -30t-33 -16t-31.5 -4.5q-14 -1 -29.5 -0.5
t-29.5 0.5h-32l-45 128h-439l-44 -128h-29h-34q-20 0 -45 1q-25 0 -41 9.5t-25.5 23t-13.5 29.5t-4 30v167h911zM163 247q-12 0 -21 -8.5t-9 -21.5t9 -21.5t21 -8.5q13 0 22 8.5t9 21.5t-9 21.5t-22 8.5zM316 123q-8 -26 -14 -48q-5 -19 -10.5 -37t-7.5 -25t-3 -15t1 -14.5
t9.5 -10.5t21.5 -4h37h67h81h80h64h36q23 0 34 12t2 38q-5 13 -9.5 30.5t-9.5 34.5q-5 19 -11 39h-368zM336 498v228q0 11 2.5 23t10 21.5t20.5 15.5t34 6h188q31 0 51.5 -14.5t20.5 -52.5v-227h-327z" />
    <glyph glyph-name="wo" unicode="&#xe601;" 
d="M246 134q-5 0 -13 0.5t-30 6t-41.5 17.5t-41.5 39t-34 65v258q1 8 3.5 20t12 42.5t21 53.5t32 42.5t43.5 19.5q1 -1 4.5 -1.5t13.5 -8.5t20 -21t23.5 -42t26.5 -69h445q2 6 5.5 15.5t13.5 34t20 43t23.5 33.5t25.5 16q1 -3 7 0.5t19 -6t26.5 -24t30 -53.5t29.5 -94v-259
q0 -5 -2 -12t-12.5 -25.5t-25 -34.5t-43.5 -32t-65 -24h-537z" />
    <glyph glyph-name="pinpai" unicode="&#xe602;" 
d="M510.5 -31q-5.5 0 -9.5 3q-40 20 -95 61.5t-115.5 101t-111.5 125t-84.5 140.5t-33.5 139q0 55 17 100.5t44.5 75t63 49.5t70 28.5t67.5 8.5q96 0 188 -92q92 92 188 92q33 0 67.5 -8.5t70 -28.5t62.5 -49.5t44.5 -75t17.5 -100.5q0 -64 -33.5 -139t-85 -140.5t-112 -125
t-115 -101t-94.5 -61.5q-5 -3 -10.5 -3zM323 756q-28 0 -56.5 -7t-57.5 -24t-52 -41t-37 -61.5t-14 -83.5q0 -55 29.5 -121t75.5 -126t101 -115.5t106.5 -96.5t92.5 -63q41 22 92.5 63t106.5 96.5t101 115.5t75.5 126t29.5 121q0 46 -14.5 83.5t-37 61.5t-51.5 41t-57.5 24
t-56.5 7q-25 0 -52.5 -10t-47 -23t-37 -28t-25.5 -23.5t-9 -10.5q-7 -8 -17 -8v0q-10 0 -17 8q-2 2 -10 10.5t-25 23.5t-37 28t-47 23t-52 10z" />
    <glyph glyph-name="huanqiu" unicode="&#xe61a;" 
d="M792 254q-6 6 -12.5 0t-0.5 -12q24 -27 18 -43t-41 -22q-7 -1 -16 -2q10 18 16 36q23 70 12 135.5t-56 119.5t-111 78q-43 16 -89 16q-82 0 -149 -47t-95 -124q-8 -20 -12 -42l-11 11q-24 27 -18 43t41 22q9 1 7.5 10t-10.5 8q-46 -8 -55 -34t22 -61q9 -10 21 -20
q-8 -88 39 -164t131 -106q43 -16 89 -16q66 0 123.5 31.5t93.5 85.5q16 0 30 2q46 8 55 34t-22 61zM285 383q26 71 88.5 115t138.5 44q42 0 83 -15q94 -34 136.5 -125t7.5 -185q-8 -22 -20 -42q-97 0 -234 48.5t-213 109.5q4 26 13 50zM512 58q-42 0 -83 15
q-75 27 -118.5 93.5t-40.5 145.5q79 -60 209 -106t228 -49q-34 -46 -85.5 -72.5t-109.5 -26.5z" />
    <glyph glyph-name="iconziti36" unicode="&#xe630;" 
d="M816.5 -127q-9.5 0 -15.5 7l-290 290l-290 -290q-7 -7 -16 -7t-16 7l-97 97q-6 6 -6 15.5t6 15.5l291 290l-291 290q-6 7 -6 16t6 16l97 97q7 6 16 6t16 -6l290 -291l290 291q6 6 15.5 6t16.5 -6l96 -97q7 -7 7 -16t-7 -16l-290 -290l290 -290q7 -6 7 -15.5t-7 -15.5
l-96 -97q-7 -7 -16.5 -7z" />
    <glyph glyph-name="shipinbaojianzhuanhuan01" unicode="&#xe61b;" 
d="M480 523q-103 0 -173.5 -39t-92.5 -108q-2 -7 2 -13t12 -8q2 -1 5 -1q15 0 19 13q18 57 78.5 88.5t149.5 31.5q8 0 14 5.5t6 12.5t-6 12.5t-14 5.5zM897 187.5q-6 6.5 -15 6.5h-10q22 66 22 115q0 135 -107.5 215t-287 80t-286.5 -80.5t-107 -215.5q0 -49 21 -114h-9
q-10 0 -15.5 -6.5t-3.5 -14.5l86 -335q4 -13 19 -13h591q16 0 19 13l87 335q2 8 -4 14.5zM145 308q9 72 41.5 124.5t82 81.5t106.5 42t125 13q66 0 128 -16.5t113 -47.5t82 -82t32 -114q1 -45 -23 -115h-664q-2 5 -6.5 19t-6 18.5l-5 15t-4 16t-2 14t-1.5 16t2 15.5z
M414 142v-268h-73l-24 268h97zM463 142h98v-268h-98v268zM610 142h97l-49 -268h-48v268zM142 159l4 -17h122l25 -268h-74zM780 -126h-73l49 268h97zM585 690.5q0 -35.5 -25 -60.5t-60 -25t-60.5 25t-25.5 60.5t25.5 60.5t60.5 25t60 -25t25 -60.5zM500 727q15 0 25.5 -11
t10.5 -26t-10.5 -25.5t-25.5 -10.5t-26 10.5t-11 25.5t11 26t26 11z" />
    <glyph glyph-name="pinpaishangou" unicode="&#xe60f;" 
d="M921 457q-30 79 -68 164.5t-59 113.5q-7 10 -19 12t-43 1q-33 0 -88 -4q-108 -6 -190 -14h-1q-32 -3 -44.5 -6t-24.5 -11q-17 -10 -38 -46l-239 -389q-34 -54 -19 -116t69 -95l312 -193q37 -23 80 -23q18 0 36 4q26 7 85.5 78.5t84.5 111.5v1q1 2 2 3l149 241v0
q31 52 33 78q2 20 -1.5 37.5t-16.5 51.5zM884 374q-2 -14 -26 -55l-148 -241l-1 -1l-2 -2q-19 -32 -68.5 -97t-66.5 -68q-39 -10 -74 11l-312 193q-35 21 -44 60.5t12 74.5l240 389v1q13 21 20 28q7 4 44 8h1q72 7 168.5 13t128.5 5q42 -69 113 -256q17 -43 15 -63z
M713 591.5q-14 7.5 -29 2.5t-22.5 -19.5t-2.5 -29.5t19.5 -22t29.5 -2t22 19t2 29t-19 22.5zM370 239q-33 24 -61 24q-32 0 -50 -26q-19 -27 -9 -56q9 -26 42.5 -50t61.5 -24h6q27 3 44 26q18 26 8 56q-9 27 -42 50zM365 161q-4 -5 -12 -4q-12 2 -31 15t-24 24q-4 7 0 13
q3 4 8 4q12 1 35 -15q18 -13 24 -24q3 -8 0 -13zM636 276q-33 24 -62 24q-31 0 -50 -26q-19 -27 -9 -56q10 -26 43 -50t62 -24h5q28 3 45 26q18 26 8 56q-10 27 -42 50zM630 198q-3 -5 -11 -4q-13 2 -31.5 15t-24.5 25q-3 6 1 12q3 4 7 5q12 0 35 -16q19 -13 24 -24
q4 -8 0 -13zM434 392q-4 11 -14 16.5t-21 2t-16.5 -13.5t-1.5 -21l111 -365q6 -19 27 -19q4 0 8 1q11 3 16 13t2 21z" />
    <glyph glyph-name="youhuiquan" unicode="&#xe60d;" 
d="M65 61zM757 546l-238 -132l-232 135q-15 -12 -15 -26v-418q0 -13 13 -25t25 -12h418q13 0 25.5 12t12.5 25v418q0 18 -9 23zM593 216q5 0 9 -4t4 -9t-4 -9t-9 -4v0h-60v-30v0q0 -6 -3.5 -9.5t-9 -3.5t-9.5 3.5t-4 9.5v0v30h-61v0q-5 0 -9 4t-4 9t4 9t9 4h61v26h-61v0
q-5 0 -9 4t-4 9t4 9t9 4h61v1l-61 70v0q-9 9 -0.5 18.5t17.5 0.5l56 -66l55 64q10 8 18.5 -1.5t-1.5 -18.5v0l-58 -68h60q5 0 9 -4t4 -9t-4 -9t-9 -4v0v0h-60v-26h60zM776 747h-529q-76 0 -129.5 -53.5t-53.5 -129.5v-529q0 -76 53.5 -129.5t129.5 -53.5h529
q76 0 129.5 53.5t53.5 129.5v529q0 76 -53.5 129.5t-129.5 53.5zM788 526v0v-258v-166q0 -24 -16.5 -40.5t-40.5 -16.5h-424q-23 0 -40 16.5t-17 40.5v424q0 31 26 48l2 1q13 8 29 8h424q18 0 32.5 -9.5t20.5 -25.5l2 -6q2 -9 2 -16v0v0v0zM738 560h-422l202 -120z" />
    <glyph glyph-name="ui" unicode="&#xe600;" 
d="M480 755h-243q-25 0 -44.5 -18t-19.5 -46v-755q0 -25 18 -44.5t46 -19.5h243q25 0 44.5 18t19.5 46v755q-5 26 -23 45t-41 19zM486 -64q0 -3 -1.5 -4.5t-2.5 -1.5h-2h-243q-3 0 -4.5 1.5t-1.5 2.5l-1 2v755q0 3 2 4.5t3 1.5l2 1h243q3 0 4.5 -2t1.5 -3v-2v-755zM301 800
h115q19 0 19 19v64q0 13 -19 13h-115q-19 0 -19 -19v-64q0 -13 19 -13zM685 -64q0 -25 18 -44.5t46 -19.5h51q25 0 44.5 18t19.5 46v448h-173v-448h-6zM736 333h70v-397q0 -3 -1.5 -4.5t-2.5 -1.5h-2h-51q-3 0 -4.5 1.5t-1.5 2.5l-1 2v397h-6zM877 602q-51 12 -109 12
t-109 -12q-6 0 -12.5 -11t-6.5 -28l32 -128q0 -13 19 -13h147q7 0 20 13l32 128q7 16 3.5 24.5t-8 11.5t-8.5 3z" />
    <glyph glyph-name="zuojiantou" unicode="&#xe642;" 
d="M672 764l-380 -380v0v0l380 -380l60 60l-319 320l319 320z" />
    <glyph glyph-name="kanguo" unicode="&#xe63a;" 
d="M520 815q-75 1 -142.5 -18t-118 -50.5t-93 -72t-71.5 -83.5t-49 -84.5t-29 -75.5t-9 -57t9.5 -56t30.5 -72.5t50.5 -79.5t72.5 -77.5t93 -66t116.5 -46t139 -17t138.5 19.5t115.5 50t91 71t69.5 82.5t48 85t28.5 78t8.5 61.5q0 27 -14.5 65.5t-41.5 84.5t-70.5 91
t-96 82.5t-125 61t-151.5 23.5zM521.5 215q-71.5 0 -122 50.5t-50.5 122t50.5 122t122 50.5t122 -50.5t50.5 -122t-50.5 -122t-122 -50.5z" />
    <glyph glyph-name="jiushuiyinpinicon55456" unicode="&#xe635;" 
d="M371 572v242q0 12 -8.5 20.5t-20.5 8.5h-162q-12 0 -20.5 -8.5t-8.5 -20.5v-242q-39 -15 -68.5 -49t-29.5 -90v-408q1 -15 7 -30.5t18.5 -32t37 -27t56.5 -10.5h179q32 0 56 10.5t36.5 27t18.5 32.5t7 31v407q0 56 -29.5 90t-68.5 49zM412 27q0 -3 -1 -6.5t-4.5 -11
t-9.5 -13t-18 -9.5t-28 -4h-179q-19 0 -32 5t-19 13t-8 14t-2 11v407q0 25 9.5 44t25 28t24 12.5t15.5 4.5q10 2 17 10t7 18v235h105v-235q0 -10 6.5 -18t16.5 -10q7 -1 15.5 -4.5t24 -12.5t25.5 -28t10 -44v-406zM336 413q-12 0 -20.5 -8.5t-8.5 -20.5v-290
q0 -12 8.5 -20.5t20.5 -8.5t20.5 8.5t8.5 20.5v290q0 12 -8.5 20.5t-20.5 8.5zM876 -17h-114v345q74 9 122 58q25 25 43 60t26 64.5t12.5 61t5 44.5t0.5 20q-1 12 -9 20.5t-20 8.5h-418q-12 0 -20.5 -8.5t-8.5 -20.5q0 -7 0.5 -20t5 -44.5t12.5 -61t26 -64.5t42 -60
q49 -49 123 -58v-345h-114q-12 0 -20.5 -8.5t-8.5 -20.5t8.5 -20.5t20.5 -8.5h286q12 0 20.5 8.5t8.5 20.5t-8.5 20.5t-20.5 8.5z" />
    <glyph glyph-name="zichan" unicode="&#xe658;" 
d="M387 606h244q1 2 3 6.5t11.5 18.5t22.5 29t39 38.5t58 47.5q-11 6 -36.5 2.5t-30.5 1.5q-5 4 -9.5 17.5t-12.5 24.5t-23 13t-32.5 -8.5t-27.5 -22.5l-10 -11q-1 -1 -3.5 -3t-8.5 -4.5t-11.5 -2t-11.5 6.5t-10 18q-5 16 -16.5 26.5t-25.5 15t-23.5 6t-18.5 1.5
q-19 0 -40.5 -16t-26.5 -52q-3 -12 -14 -16.5t-22 2.5q-28 15 -67 11q5 -5 14 -14.5t17 -17.5t18 -19t18 -20.5t16 -19.5t13 -18.5t8.5 -16.5t3 -14t-4.5 -10zM852 89q1 201 0 215q-1 29 -23.5 64t-53 64.5t-61 55t-51 40.5t-21.5 15h-251q-72 -41 -139 -113.5t-76 -127.5
q0 -2 -2 -44t-5 -103t-4 -79q-1 -15 -5.5 -32t-10 -30t-11 -24t-9.5 -17t-4 -5q4 -3 12 -7.5t40.5 -16t73 -20.5t113 -16.5t157.5 -8.5q63 0 115 2.5t88.5 8t63 11t46 14t29.5 13t21.5 12.5t14.5 10q-12 -1 -21 11.5t-13.5 29.5t-7.5 36t-4 29.5t-1 12.5zM637 126
q-13 -84 -99 -90v-51h-56v50q-42 6 -96 24l16 67q50 -20 88 -24q66 -8 69 32q2 14 -15 26t-42.5 23t-51 23.5t-43.5 32.5t-17 46q-2 46 25.5 71t68.5 29v52h56v-50q42 0 82 -18l-15 -62q-48 18 -81 18q-61 0 -62 -27q0 -21 18.5 -33t49.5 -18.5t36 -8.5q28 -12 45 -29
q32 -31 24 -83z" />
    <glyph glyph-name="gouwudai-copy" unicode="&#xe617;" 
d="M939 -63l-39 613q-1 8 -6.5 13.5t-13.5 5.5h-165v82q0 85 -60 145.5t-145.5 60.5t-145.5 -60.5t-60 -145.5v-82h-163q-8 0 -14 -5.5t-7 -13.5l-42 -617q-1 -9 5 -16t15 -7h821h1q8 0 14 6t6 15q0 3 -1 6v0zM345 651q0 68 48 116.5t116.5 48.5t116.5 -48.5t48 -116.5v-82
h-329v82zM121 -49l38 577h145v-47q-21 -12 -21 -36q0 -17 12 -29t29 -12t29 12t12 29q0 24 -20 36v47h329v-47q-20 -12 -20 -36q0 -17 12 -29t29 -12t29 12t12 29q0 24 -21 36v47h146l35 -577h-775v0z" />
    <glyph glyph-name="shanshi" unicode="&#xe6e1;" 
d="M608 187q-16 -15 -37 -14q-19 1 -34 14l-4 6q-31 33 -77.5 34.5t-79.5 -29.5v0q-16 -15 -37.5 -14.5t-36.5 16.5q-8 9 -20.5 9.5t-21 -8t-9 -20.5t7.5 -21q32 -34 78 -35h3q44 0 76 30v0q15 14 35.5 14t35.5 -14l4 -6q32 -33 78 -35h4q43 0 75 30q16 15 38 14t36 -16
q9 -10 22 -10q11 0 20 8q9 9 9.5 21t-8.5 21q-31 33 -77 34.5t-80 -29.5v0zM608 187zM408 498q-9 -8 -9 -20.5t8.5 -21t21 -8.5t20.5 9q40 39 40 95t-40 96q-22 22 -22 53.5t22 53.5q9 9 9 21t-8.5 21t-21 9t-20.5 -9q-40 -39 -40 -95t40 -96q22 -22 22 -53.5t-22 -54.5v0z
M408 498zM597 498q-9 -8 -9 -20.5t8.5 -21t21 -8.5t20.5 9q40 39 40 95t-40 96q-22 22 -22 53.5t22 53.5q9 9 9 21t-8.5 21t-21 9t-20.5 -9q-40 -39 -40 -95t40 -96q22 -22 22 -53.5t-22 -54.5v0zM597 498zM994 462h-37q1 3 1 5q0 71 -104 121q-11 5 -22.5 1t-16.5 -15
t-1 -22.5t15 -17.5q70 -33 70 -67q0 -2 -1 -4l-3 -1q0 -1 1 -8q-18 -41 -124 -76t-260 -35t-260 34.5t-124 76.5l1 8l-3 1q-1 2 -1 4q0 17 19.5 35t54.5 34q11 5 15 16.5t-1 22.5t-16.5 15.5t-22.5 -0.5q-108 -50 -108 -123v-5h-36q-12 0 -20.5 -9t-8.5 -21t8.5 -20.5
t20.5 -8.5h36q1 -112 51.5 -210.5t138.5 -162.5v0h1v-1v0q109 -67 255 -67t255 67v0v0.5t1 0.5v0l14 9v1q82 65 128.5 160.5t47.5 202.5h36q12 0 20.5 8.5t8.5 20.5t-8.5 21t-20.5 9v0zM735 79q-94 -58 -223 -58t-223 58q-70 51 -112.5 128t-49.5 165q32 -23 80 -41
q127 -47 305 -47t305 47q48 18 80 41q-7 -88 -49.5 -165t-112.5 -128v0zM735 79z" />
    <glyph glyph-name="ruanlengdong" unicode="&#xe6a0;" 
d="M309 145q-10 0 -17.5 -8t-6.5 -18q4 -102 -22 -117q-12 -6 -30 8l-1 1l-2 1l-2 1t-5.5 3.5t-9 6t-13.5 9t-16.5 12t-19.5 15t-23 18t-26.5 22t-29.5 25.5q-23 21 -20 33q4 13 32 25.5t57 18.5l21 4l1 71v2v1q-1 6 -1 14.5t2 33.5t7.5 50t18.5 62t31.5 72.5t50.5 78.5
t72 83v1q105 111 217 113q32 0 55.5 -7.5t29.5 -14.5q4 -3 9 -10t13.5 -30.5t11 -51t-6 -73.5t-32.5 -96q-4 -10 -0.5 -20t13 -14t19.5 -0.5t14 12.5q28 60 37.5 115t6 88t-17 64t-19 38t-12.5 15q-15 15 -48 26t-74 10q-134 -2 -253 -128q-43 -43 -77 -89.5t-54.5 -85
t-34.5 -78.5t-20 -68t-8.5 -55.5t-2.5 -39t1 -20.5l-1 -26q-94 -25 -108 -76q-12 -43 35 -84q94 -85 153 -119q26 -19 52 -19q17 0 30 8q55 28 49 164q1 10 -6.5 17t-18.5 6zM470 687q-5 10 -14.5 14t-19.5 -1q-10 -4 -14 -13.5t0 -19.5l7.5 -15t19.5 -28.5t32.5 -35
t47 -27.5t62.5 -12h12q10 1 17 9t6.5 18.5t-8.5 17.5t-18 7q-26 -2 -48.5 6.5t-36 20t-25 26t-15.5 22t-5 11.5zM976 197q-6 33 -21 63q-4 8 -12 10.5t-15 -0.5q-8 -4 -11 -12t1 -15q20 -42 21.5 -86.5t-16.5 -79.5q-14 -26 -50 -35q-44 -11 -103.5 3t-95.5 39
q-24 16 -53 24.5t-47 10t-52 2.5q-48 1 -66 4q-41 9 -57 37q-20 37 -1 104q32 67 123.5 99.5t184.5 20.5q8 -1 15 4t8 13.5t-4 15.5t-14 8q-67 8 -136 -4t-129 -48.5t-86 -91.5q0 -1 -0.5 -1.5l-0.5 -0.5q-6 -19 -9 -36q-2 -4 -2 -6q-2 -9 -3.5 -15.5t-3.5 -32.5t-0.5 -47
t9.5 -48t23 -46q34 -45 101 -47h1v0q65 2 86 -2t43 -19q28 -19 53 -31q88 -43 176 -43q84 0 128 47q22 20 30.5 56t4 77.5t-8.5 63t-9 38.5q2 3 -2 7zM936 -14l-3 -2q-23 -26 -68 -32.5t-94 3.5t-95 32q-19 9 -47 28q-29 19 -55.5 25t-97.5 3q-46 2 -69 32q-12 14 -18 37
q23 -20 60 -28h1q25 -3 72 -4q31 0 47 -1.5t39 -8t42 -19.5q33 -23 84 -38.5t99 -15.5q29 0 49 6q53 12 75 52q0 -52 -21 -69zM575 301q-23 15 -53 12q-30 -2 -51 -21q-22 -20 -20 -47q3 -27 27 -43q20 -14 46 -14q5 0 7 1q32 3 52.5 22.5t18.5 45.5q-2 28 -27 44zM529 220
q-20 -2 -34 7q-12 8 -13 20t10 22q13 12 32 14h5q16 0 30 -9q12 -7 13 -20q1 -12 -12 -22.5t-31 -11.5zM621 689.5q0 19.5 -13.5 33t-33.5 13.5t-33.5 -13.5t-13.5 -33t13.5 -33.5t33.5 -14t33.5 14t13.5 33.5zM558 689q0 7 5 12t11.5 5t11.5 -5t5 -12t-5 -11.5t-11.5 -4.5
t-11.5 4.5t-5 11.5zM999 366l-75 43l75 43q9 5 11.5 15.5t-2.5 19.5t-15 11.5t-20 -2.5l-74 -43v86q0 11 -7.5 18.5t-18.5 7.5t-18.5 -7.5t-7.5 -18.5v-86l-74 43q-10 6 -20 3t-15 -12q-6 -9 -3 -19.5t12 -15.5l75 -43l-75 -43q-9 -5 -12 -15.5t3 -19.5q7 -13 22 -13
q7 0 13 4l74 43v-86q0 -11 7.5 -18.5t18.5 -7.5t18.5 7.5t7.5 18.5v86l74 -43q6 -4 13 -4q15 0 22 13q6 9 3 19.5t-12 15.5z" />
    <glyph glyph-name="rili" unicode="&#xe78e;" 
d="M638 179h-56v-56h56v56v0zM638 347h-56v-56h56v56v0zM471 514h-56v-55h56v55zM638 514h-56v-55h56v55v0zM806 347h-56v-56h56v56zM806 514h-56v-55h56v55zM303 179h-56v-56h56v56zM303 347h-56v-56h56v56zM750 794v56h-56v-56h-335v56h-56v-56h-224v-838h895v838h-224z
M918 12h-783v558h783v-558zM918 626h-783v112h168v-56h56v56h335v-56h56v56h168v-112v0zM303 514h-56v-55h56v55zM471 179h-56v-56h56v56zM471 347h-56v-56h56v56zM806 179h-56v-56h56v56zM974 -45h-895v839h224v56h56v-56h335v56h57v-56h223v-839zM80 -44h893v837h-223v56
h-55v-56h-337v56h-54v-56h-224v-837zM918 11h-783v560h783v-560zM136 12h781v558h-781v-558zM806 123h-56v57h56v-57zM751 124h54v55h-54v-55zM639 123h-57v57h57v-57zM583 124h55v55h-55v-55zM471 123h-57v57h57v-57zM415 124h55v55h-55v-55zM304 123h-57v57h57v-57z
M248 124h55v55h-55v-55zM806 290h-56v57h56v-57zM751 291h54v55h-54v-55zM639 290h-57v57h57v-57zM583 291h55v55h-55v-55zM471 290h-57v57h57v-57zM415 291h55v55h-55v-55zM304 290h-57v57h57v-57zM248 291h55v55h-55v-55zM806 458h-56v57h56v-57zM751 459h54v55h-54v-55z
M639 458h-57v57h57v-57zM583 459h55v55h-55v-55zM471 458h-57v57h57v-57zM415 459h55v55h-55v-55zM304 458h-57v57h57v-57zM248 459h55v55h-55v-55zM918 626h-783v113h169v-56h54v56h337v-56h55v56h168v-113zM136 627h781v110h-166v-55h-57v55h-335v-55h-56v55h-167v-110z
" />
    <glyph glyph-name="icon2" unicode="&#xe603;" 
d="M509 768l355 -368l-368 -356l-356 369z" />
    <glyph glyph-name="sousuo" unicode="&#xe623;" 
d="M691.5 646.5q-91.5 91.5 -221 91.5t-221 -91.5t-91.5 -221t91.5 -221.5t221 -92t221 92t91.5 221.5t-91.5 221zM181.5 136q-56.5 57 -88 131.5t-31.5 157.5q0 111 54.5 205.5t149 149t205.5 54.5t205 -54.5t149 -149t55 -205.5q0 -83 -31.5 -157.5t-88.5 -131.5
t-131.5 -88.5t-157.5 -31.5t-158 31.5t-131.5 88.5zM946 -50q-17 -16 -40 -16t-39 16l-79 79q-17 17 -17 40t16.5 39.5t39.5 16.5t40 -17l79 -79q16 -16 16 -39t-16 -40v0z" />
    <glyph glyph-name="lvse" unicode="&#xe612;" horiz-adv-x="1115" 
d="M1098 516q-2 9 -10.5 15.5t-18.5 6.5h-5q-337 -69 -440 -264q-24 -45 -34 -94.5t-6 -91t9 -65.5t12 -45q-26 -15 -66 -29.5t-70 -18.5q-11 -1 -18.5 -9.5t-7.5 -19.5q0 -12 8.5 -20.5t21.5 -8.5h3q45 7 102 30t93 49q251 5 363 148q35 45 54.5 102.5t24 103.5t1.5 97.5
t-7 72t-8 39.5zM988 134q-77 -98 -241 -119q52 50 95.5 117t58.5 99t21 48q2 5 2 11q0 12 -8.5 21t-20.5 9q-9 0 -17 -6t-11 -14v-1q-8 -18 -19 -39.5t-38 -68t-68 -95t-87 -84.5q-35 128 21 235q86 161 371 226q6 -31 8 -65t0 -83t-19 -100t-48 -91zM503 -25q9 0 16.5 5.5
t11.5 12.5q4 8 12 33t19 85t11 121q-1 52 -10.5 104.5t-32 113t-68 122.5t-109.5 115l-239 202q-8 7 -19 7q-4 0 -7 -1q-15 -4 -20 -18t-11 -32t-19.5 -70.5t-22 -103t-13 -120.5t0.5 -132.5t26 -130.5t57 -121q126 -185 417 -192zM135 200q-38 55 -56.5 128t-20 139t8 140
t20 120t22.5 89l207 -174q195 -162 198 -408v-4q0 -75 -18 -149q-37 63 -138 142q-56 45 -96 99.5t-58 97t-27.5 84.5t-10 59.5t0.5 25.5v1q0 12 -8.5 20.5t-21.5 8.5q-11 0 -19.5 -8t-9.5 -19t0 -29.5t11 -67.5t29.5 -96.5t65 -109t108.5 -113.5q106 -84 131 -140
q-222 22 -318 164z" />
  </font>
</defs>
</svg>
